<svg xmlns="http://www.w3.org/2000/svg" width="36.041" height="54.029" viewBox="0 0 36.041 54.029">
  <path id="Path_120" data-name="Path 120" d="M466.33,99.788a25.1,25.1,0,0,0-6.206-1.925.093.093,0,0,0-.1.047,17.421,17.421,0,0,0-.773,1.588,23.2,23.2,0,0,0-6.971,0,16.059,16.059,0,0,0-.785-1.588.094.094,0,0,0-.1-.047,25.022,25.022,0,0,0-6.206,1.925.089.089,0,0,0-.04.035,25.729,25.729,0,0,0-4.5,17.355.107.107,0,0,0,.039.072A25.285,25.285,0,0,0,448.3,121.1a.1.1,0,0,0,.107-.035,18.138,18.138,0,0,0,1.557-2.534.1.1,0,0,0-.053-.135,16.484,16.484,0,0,1-2.379-1.134.1.1,0,0,1-.01-.162c.16-.119.321-.244.473-.369a.094.094,0,0,1,.1-.014,18.028,18.028,0,0,0,15.323,0,.094.094,0,0,1,.1.012c.153.125.312.251.473.371a.1.1,0,0,1-.008.162,15.458,15.458,0,0,1-2.38,1.132.1.1,0,0,0-.051.136,20.432,20.432,0,0,0,1.556,2.533.1.1,0,0,0,.107.036,25.2,25.2,0,0,0,7.627-3.848.1.1,0,0,0,.039-.071,25.569,25.569,0,0,0-4.507-17.355.079.079,0,0,0-.04-.036m-15.623,13.926a3.093,3.093,0,0,1,0-6.146,3.093,3.093,0,0,1,0,6.146m10.132,0a3.093,3.093,0,0,1,0-6.146,3.093,3.093,0,0,1,0,6.146" transform="translate(-434.967 -97.862)" fill="#fff"/>
  <text id="Discord" transform="translate(0 51.029)" fill="#fff" font-size="9" font-family="Poppins-Regular, Poppins"><tspan x="0" y="0" letter-spacing="0.02em">Dis</tspan><tspan y="0" letter-spacing="0.013em">c</tspan><tspan y="0" letter-spacing="0.02em">o</tspan><tspan y="0" letter-spacing="0.01em">r</tspan><tspan y="0">d</tspan></text>
</svg>
