<svg xmlns="http://www.w3.org/2000/svg" xmlns:xlink="http://www.w3.org/1999/xlink" width="106.362" height="106.345" viewBox="0 0 106.362 106.345">
  <defs>
    <style>
      .cls-1 {
        fill: none;
      }

      .cls-2 {
        clip-path: url(#clip-path);
      }

      .cls-3 {
        fill: #f97000;
      }
    </style>
    <clipPath id="clip-path">
      <rect id="Rectangle_43" data-name="Rectangle 43" class="cls-1" width="106.362" height="106.345"/>
    </clipPath>
  </defs>
  <g id="Group_31" data-name="Group 31" class="cls-2">
    <path id="Path_90" data-name="Path 90" class="cls-3" d="M219.9,129.319c-.608.785-7.919,8.645-7.919,8.645s5.786-9.042,6.394-9.826,1.443-1.156,1.864-.83.27,1.227-.338,2.012" transform="translate(-153.249 -91.951)"/>
    <path id="Path_91" data-name="Path 91" class="cls-3" d="M143.364,227.591c.608-.785,6.394-9.826,6.394-9.826s-7.311,7.86-7.919,8.645-.76,1.685-.339,2.012,1.256-.045,1.864-.83" transform="translate(-102.125 -157.433)"/>
    <path id="Path_92" data-name="Path 92" class="cls-3" d="M231.5,154.214c-.875.47-10.75,4.678-10.75,4.678s8.962-5.908,9.837-6.378,1.788-.47,2.04,0-.252,1.231-1.127,1.7" transform="translate(-159.594 -110.005)"/>
    <path id="Path_93" data-name="Path 93" class="cls-3" d="M122.152,213.769c.875-.47,9.837-6.378,9.837-6.378s-9.875,4.208-10.75,4.678-1.379,1.231-1.127,1.7,1.166.469,2.04,0" transform="translate(-86.788 -149.933)"/>
    <path id="Path_94" data-name="Path 94" class="cls-3" d="M236.211,183c-.988.1-11.722.184-11.722.184s10.545-2.007,11.533-2.1,1.831.254,1.883.784S237.2,182.9,236.211,183" transform="translate(-162.294 -130.9)"/>
    <path id="Path_95" data-name="Path 95" class="cls-3" d="M112.868,197.23c.988-.1,11.533-2.1,11.533-2.1s-10.734.087-11.722.184-1.747.606-1.694,1.136.9.881,1.883.784" transform="translate(-80.234 -141.065)"/>
    <path id="Path_96" data-name="Path 96" class="cls-3" d="M234.266,205.333c-.953-.279-10.941-4.213-10.941-4.213s10.531,2.082,11.483,2.361,1.6.92,1.454,1.432-1.044.7-2,.42" transform="translate(-161.453 -145.399)"/>
    <path id="Path_97" data-name="Path 97" class="cls-3" d="M115.283,169.033c.952.279,11.483,2.361,11.483,2.361s-9.988-3.934-10.941-4.213-1.846-.091-2,.42.5,1.152,1.453,1.432" transform="translate(-82.278 -120.77)"/>
    <path id="Path_98" data-name="Path 98" class="cls-3" d="M226.191,220.173c-.78-.615-8.574-8-8.574-8s8.99,5.866,9.769,6.481,1.143,1.453.813,1.871-1.23.259-2.009-.356" transform="translate(-157.326 -153.393)"/>
    <path id="Path_99" data-name="Path 99" class="cls-3" d="M128.588,142.784c.779.615,9.769,6.481,9.769,6.481s-7.794-7.381-8.574-8-1.679-.775-2.009-.356.034,1.256.813,1.871" transform="translate(-92.287 -101.704)"/>
    <path id="Path_100" data-name="Path 100" class="cls-3" d="M212.718,231.154c-.483-.867-4.846-10.675-4.846-10.675s6.049,8.868,6.532,9.735.5,1.78.032,2.04-1.235-.233-1.718-1.1" transform="translate(-150.281 -159.395)"/>
    <path id="Path_101" data-name="Path 101" class="cls-3" d="M151.486,122.725c.483.867,6.532,9.735,6.532,9.735s-4.363-9.808-4.846-10.675-1.253-1.36-1.718-1.1-.451,1.173.032,2.04" transform="translate(-109.247 -87.199)"/>
    <path id="Path_102" data-name="Path 102" class="cls-3" d="M195.753,236.147c-.106-.987-.294-11.72-.294-11.72s2.106,10.526,2.212,11.513-.237,1.834-.767,1.891-1.046-.7-1.152-1.684" transform="translate(-141.307 -162.249)"/>
    <path id="Path_103" data-name="Path 103" class="cls-3" d="M180.412,112.922c.106.987,2.212,11.513,2.212,11.513s-.187-10.733-.294-11.72-.622-1.741-1.152-1.684-.873.9-.767,1.891" transform="translate(-130.414 -80.268)"/>
    <path id="Path_104" data-name="Path 104" class="cls-3" d="M167.31,234.254c.278-.953,4.2-10.946,4.2-10.946s-2.068,10.534-2.346,11.487-.918,1.6-1.43,1.455-.7-1.043-.423-2" transform="translate(-120.864 -161.44)"/>
    <path id="Path_105" data-name="Path 105" class="cls-3" d="M203.454,115.225c-.278.953-2.346,11.487-2.346,11.487s3.92-9.993,4.2-10.946.089-1.847-.423-2-1.152.5-1.429,1.455" transform="translate(-145.391 -82.234)"/>
    <path id="Path_106" data-name="Path 106" class="cls-3" d="M122.537,261.5c.308-.376,4.161-3.991,4.161-3.991s-2.79,4.487-3.1,4.863a.709.709,0,1,1-1.063-.872" transform="translate(-88.415 -186.167)"/>
    <path id="Path_107" data-name="Path 107" class="cls-3" d="M249.886,108.68c-.308.376-4.161,3.991-4.161,3.991s2.79-4.487,3.1-4.863a.709.709,0,1,1,1.063.872" transform="translate(-177.646 -77.67)"/>
    <path id="Path_108" data-name="Path 108" class="cls-3" d="M157.857,278.1c.146-.464,2.371-5.256,2.371-5.256s-.913,5.2-1.059,5.668a.709.709,0,1,1-1.312-.412" transform="translate(-114.085 -197.25)"/>
    <path id="Path_109" data-name="Path 109" class="cls-3" d="M219.729,89.237c-.146.464-2.371,5.256-2.371,5.256s.913-5.2,1.059-5.668a.709.709,0,1,1,1.312.412" transform="translate(-157.139 -63.739)"/>
    <path id="Path_110" data-name="Path 110" class="cls-3" d="M198.963,282.155c-.044-.485.169-5.764.169-5.764s1.156,5.155,1.2,5.64a.709.709,0,1,1-1.369.124" transform="translate(-143.835 -199.816)"/>
    <path id="Path_111" data-name="Path 111" class="cls-3" d="M181.344,84.518c.044.485-.169,5.764-.169,5.764s-1.156-5.155-1.2-5.64a.709.709,0,1,1,1.369-.124" transform="translate(-130.109 -60.511)"/>
    <path id="Path_112" data-name="Path 112" class="cls-3" d="M233.611,272.311c-.227-.43-2.065-5.384-2.065-5.384s3.053,4.312,3.28,4.742a.709.709,0,1,1-1.216.642" transform="translate(-167.396 -192.974)"/>
    <path id="Path_113" data-name="Path 113" class="cls-3" d="M141.407,96.125c.227.43,2.065,5.384,2.065,5.384s-3.053-4.312-3.28-4.742a.709.709,0,1,1,1.216-.642" transform="translate(-101.26 -69.116)"/>
    <path id="Path_114" data-name="Path 114" class="cls-3" d="M84.647,200.028c.484-.049,5.765.109,5.765.109s-5.143,1.21-5.627,1.259a.709.709,0,1,1-.138-1.368" transform="translate(-60.61 -144.603)"/>
    <path id="Path_115" data-name="Path 115" class="cls-3" d="M282.1,180.209c-.484.049-5.765-.109-5.765-.109s5.143-1.21,5.627-1.259a.709.709,0,1,1,.138,1.368" transform="translate(-199.777 -129.289)"/>
    <path id="Path_116" data-name="Path 116" class="cls-3" d="M96.03,233.374c.431-.226,5.389-2.051,5.389-2.051s-4.32,3.042-4.75,3.268a.709.709,0,1,1-.639-1.217" transform="translate(-69.046 -167.235)"/>
    <path id="Path_117" data-name="Path 117" class="cls-3" d="M272.447,141.617c-.431.226-5.389,2.051-5.389,2.051s4.32-3.042,4.75-3.268a.709.709,0,1,1,.639,1.217" transform="translate(-193.069 -101.411)"/>
    <path id="Path_118" data-name="Path 118" class="cls-3" d="M109.072,122.074c.374.31,3.969,4.182,3.969,4.182s-4.472-2.814-4.846-3.124a.709.709,0,1,1,.877-1.058" transform="translate(-77.952 -88.078)"/>
    <path id="Path_119" data-name="Path 119" class="cls-3" d="M261.224,250.224c-.375-.31-3.97-4.182-3.97-4.182s4.472,2.813,4.846,3.124a.708.708,0,1,1-.877,1.058" transform="translate(-185.981 -177.876)"/>
    <path id="Path_120" data-name="Path 120" class="cls-3" d="M89.442,157.291c.463.148,5.243,2.4,5.243,2.4s-5.2-.941-5.662-1.089a.709.709,0,1,1,.419-1.309" transform="translate(-63.885 -113.675)"/>
    <path id="Path_121" data-name="Path 121" class="cls-3" d="M277.978,220.157c-.463-.148-5.243-2.4-5.243-2.4s5.2.941,5.662,1.089a.709.709,0,1,1-.419,1.309" transform="translate(-197.173 -157.428)"/>
    <path id="Path_122" data-name="Path 122" class="cls-3" d="M147.551,310.045c.189-.636,3.124-7.219,3.124-7.219s-1.137,7.117-1.326,7.753a.967.967,0,1,1-1.8-.534" transform="translate(-106.626 -218.927)"/>
    <path id="Path_123" data-name="Path 123" class="cls-3" d="M228.039,51.181c-.189.636-3.124,7.219-3.124,7.219s1.137-7.117,1.326-7.753a.967.967,0,1,1,1.8.534" transform="translate(-162.602 -35.953)"/>
    <path id="Path_124" data-name="Path 124" class="cls-3" d="M202.007,314.976c-.062-.661.2-7.863.2-7.863s1.6,7.027,1.663,7.688a.967.967,0,1,1-1.867.175" transform="translate(-146.033 -222.027)"/>
    <path id="Path_125" data-name="Path 125" class="cls-3" d="M176.985,45.449c.062.661-.2,7.863-.2,7.863s-1.6-7.027-1.663-7.688a.967.967,0,1,1,1.867-.175" transform="translate(-126.596 -32.053)"/>
    <path id="Path_126" data-name="Path 126" class="cls-3" d="M249.028,301.455c-.311-.586-2.833-7.338-2.833-7.338s4.178,5.872,4.49,6.459a.967.967,0,1,1-1.656.879" transform="translate(-177.986 -212.631)"/>
    <path id="Path_127" data-name="Path 127" class="cls-3" d="M122.71,61.392c.311.586,2.833,7.338,2.833,7.338s-4.178-5.872-4.49-6.459a.967.967,0,1,1,1.656-.879" transform="translate(-87.39 -43.87)"/>
    <path id="Path_128" data-name="Path 128" class="cls-3" d="M286.825,271.006c-.513-.421-5.442-5.68-5.442-5.68s6.119,3.809,6.632,4.23a.967.967,0,1,1-1.189,1.45" transform="translate(-203.425 -191.817)"/>
    <path id="Path_129" data-name="Path 129" class="cls-3" d="M78.449,97.166c.513.421,5.442,5.68,5.442,5.68s-6.119-3.809-6.632-4.23a.967.967,0,1,1,1.19-1.45" transform="translate(-55.487 -70.009)"/>
    <path id="Path_130" data-name="Path 130" class="cls-3" d="M62.134,250.144c.583-.317,7.308-2.91,7.308-2.91s-5.829,4.24-6.411,4.557a.967.967,0,1,1-.9-1.647" transform="translate(-44.415 -178.737)"/>
    <path id="Path_131" data-name="Path 131" class="cls-3" d="M300.881,121.338c-.583.317-7.308,2.91-7.308,2.91s5.828-4.24,6.411-4.557a.967.967,0,1,1,.9,1.647" transform="translate(-212.238 -86.4)"/>
    <path id="Path_132" data-name="Path 132" class="cls-3" d="M96.913,286.593c.422-.512,5.693-5.427,5.693-5.427s-3.825,6.109-4.247,6.62a.967.967,0,1,1-1.446-1.193" transform="translate(-69.825 -203.268)"/>
    <path id="Path_133" data-name="Path 133" class="cls-3" d="M271.277,78.656c-.422.512-5.693,5.427-5.693,5.427s3.825-6.109,4.247-6.621a.967.967,0,1,1,1.447,1.193" transform="translate(-192.003 -55.636)"/>
    <path id="Path_134" data-name="Path 134" class="cls-3" d="M51.437,146.786c.635.193,7.2,3.162,7.2,3.162s-7.111-1.175-7.746-1.367a.967.967,0,1,1,.544-1.795" transform="translate(-36.136 -106.071)"/>
    <path id="Path_135" data-name="Path 135" class="cls-3" d="M309.88,228.637c-.635-.193-7.2-3.162-7.2-3.162s7.111,1.175,7.746,1.367a.967.967,0,1,1-.544,1.795" transform="translate(-218.82 -163.007)"/>
    <path id="Path_136" data-name="Path 136" class="cls-3" d="M45.414,201.217c.661-.058,7.862.245,7.862.245s-7.036,1.564-7.7,1.622a.967.967,0,1,1-.165-1.868" transform="translate(-32.024 -145.464)"/>
    <path id="Path_137" data-name="Path 137" class="cls-3" d="M315.062,177.719c-.661.058-7.862-.245-7.862-.245s7.036-1.564,7.7-1.622a.967.967,0,1,1,.165,1.868" transform="translate(-222.09 -127.127)"/>
    <path id="Path_138" data-name="Path 138" class="cls-3" d="M102.338,334.329c.393-.768,5.707-8.485,5.707-8.485s-3.143,8.827-3.536,9.595a1.257,1.257,0,1,1-2.171-1.11" transform="translate(-73.832 -235.568)"/>
    <path id="Path_139" data-name="Path 139" class="cls-3" d="M266.123,22.019c-.393.768-5.707,8.485-5.707,8.485s3.143-8.827,3.536-9.595a1.257,1.257,0,1,1,2.171,1.11" transform="translate(-188.267 -14.435)"/>
    <path id="Path_140" data-name="Path 140" class="cls-3" d="M170.722,351.721c.078-.859,2.127-10,2.127-10s.378,9.362.3,10.221a1.257,1.257,0,1,1-2.428-.219" transform="translate(-123.417 -247.045)"/>
    <path id="Path_141" data-name="Path 141" class="cls-3" d="M206.8,1.669c-.078.859-2.127,10-2.127,10s-.378-9.362-.3-10.221A1.423,1.423,0,0,1,205.727,0,1.423,1.423,0,0,1,206.8,1.669" transform="translate(-147.743 0)"/>
    <path id="Path_142" data-name="Path 142" class="cls-3" d="M238.894,345.471c-.258-.823-1.879-10.051-1.879-10.051s3.946,8.5,4.2,9.321a1.257,1.257,0,1,1-2.326.73" transform="translate(-171.35 -242.491)"/>
    <path id="Path_143" data-name="Path 143" class="cls-3" d="M133.8,9.093c.258.823,1.879,10.051,1.879,10.051s-3.946-8.5-4.2-9.321a1.423,1.423,0,0,1,.695-1.855A1.423,1.423,0,0,1,133.8,9.093" transform="translate(-94.985 -5.728)"/>
    <path id="Path_144" data-name="Path 144" class="cls-3" d="M294.435,315.527c-.555-.66-5.607-8.551-5.607-8.551s6.916,6.322,7.472,6.981a1.257,1.257,0,1,1-1.865,1.57" transform="translate(-208.808 -221.928)"/>
    <path id="Path_145" data-name="Path 145" class="cls-3" d="M68.829,44.321c.555.66,5.607,8.551,5.607,8.551s-6.916-6.321-7.472-6.981a1.257,1.257,0,1,1,1.865-1.57" transform="translate(-48.094 -31.575)"/>
    <path id="Path_146" data-name="Path 146" class="cls-3" d="M9.715,240.473c.82-.267,10.031-1.984,10.031-1.984s-8.456,4.035-9.277,4.3a1.423,1.423,0,0,1-1.863-.675,1.423,1.423,0,0,1,1.108-1.643" transform="translate(-6.188 -172.415)"/>
    <path id="Path_147" data-name="Path 147" class="cls-3" d="M345,131.892c-.82.267-10.031,1.984-10.031,1.984s8.456-4.035,9.277-4.3a1.257,1.257,0,1,1,.755,2.318" transform="translate(-242.165 -93.605)"/>
    <path id="Path_148" data-name="Path 148" class="cls-3" d="M44.044,294.089c.661-.554,8.566-5.585,8.566-5.585s-6.339,6.9-7,7.454a1.257,1.257,0,1,1-1.565-1.869" transform="translate(-31.373 -208.573)"/>
    <path id="Path_149" data-name="Path 149" class="cls-3" d="M315.82,69.169c-.661.554-8.566,5.585-8.566,5.585s6.339-6.9,7-7.454a1.257,1.257,0,1,1,1.565,1.869" transform="translate(-222.129 -48.339)"/>
    <path id="Path_150" data-name="Path 150" class="cls-3" d="M22.515,101.421c.766.4,8.455,5.752,8.455,5.752s-8.81-3.19-9.576-3.587a1.257,1.257,0,1,1,1.121-2.165" transform="translate(-14.79 -73.165)"/>
    <path id="Path_151" data-name="Path 151" class="cls-3" d="M333.963,266.85c-.766-.4-8.455-5.752-8.455-5.752s8.81,3.19,9.576,3.587a1.257,1.257,0,1,1-1.121,2.165" transform="translate(-235.325 -188.76)"/>
    <path id="Path_152" data-name="Path 152" class="cls-3" d="M1.8,169.7c.859.083,9.99,2.181,9.99,2.181s-9.364.328-10.222.246a1.422,1.422,0,0,1-1.439-1.362A1.423,1.423,0,0,1,1.8,169.7" transform="translate(-0.09 -122.677)"/>
    <path id="Path_153" data-name="Path 153" class="cls-3" d="M351.666,207.755c-.859-.082-9.99-2.18-9.99-2.18s9.364-.328,10.222-.246a1.257,1.257,0,1,1-.232,2.427" transform="translate(-247.014 -148.432)"/>
    <path id="Path_154" data-name="Path 154" class="cls-3" d="M134.23,345.481c.246-.827,4.061-9.385,4.061-9.385s-1.478,9.252-1.724,10.079a1.257,1.257,0,1,1-2.337-.695" transform="translate(-96.982 -242.98)"/>
    <path id="Path_155" data-name="Path 155" class="cls-3" d="M238.865,8.958c-.246.827-4.061,9.385-4.061,9.385s1.478-9.252,1.724-10.079a1.423,1.423,0,0,1,1.613-1.15,1.423,1.423,0,0,1,.723,1.845" transform="translate(-169.751 -5.114)"/>
    <path id="Path_156" data-name="Path 156" class="cls-3" d="M205.023,351.893c-.081-.859.265-10.222.265-10.222s2.082,9.135,2.162,9.994a1.257,1.257,0,1,1-2.427.228" transform="translate(-148.212 -247.01)"/>
    <path id="Path_157" data-name="Path 157" class="cls-3" d="M172.495,1.506c.081.859-.265,10.222-.265,10.222s-2.082-9.136-2.162-9.994A1.423,1.423,0,0,1,171.135.065a1.423,1.423,0,0,1,1.359,1.441" transform="translate(-122.944 -0.044)"/>
    <path id="Path_158" data-name="Path 158" class="cls-3" d="M266.151,334.314c-.4-.762-3.683-9.539-3.683-9.539s5.432,7.634,5.836,8.4a1.257,1.257,0,1,1-2.153,1.143" transform="translate(-189.751 -234.795)"/>
    <path id="Path_159" data-name="Path 159" class="cls-3" d="M101.937,22.233c.4.762,3.683,9.539,3.683,9.539s-5.432-7.634-5.836-8.4a1.257,1.257,0,1,1,2.153-1.143" transform="translate(-71.975 -15.406)"/>
    <path id="Path_160" data-name="Path 160" class="cls-3" d="M315.287,294.73c-.667-.547-7.074-7.383-7.074-7.383s7.954,4.952,8.621,5.5a1.256,1.256,0,1,1-1.547,1.884" transform="translate(-222.822 -207.737)"/>
    <path id="Path_161" data-name="Path 161" class="cls-3" d="M44.4,68.739c.667.547,7.075,7.383,7.075,7.383s-7.954-4.952-8.621-5.5A1.256,1.256,0,1,1,44.4,68.739" transform="translate(-30.503 -49.387)"/>
    <path id="Path_162" data-name="Path 162" class="cls-3" d="M23.188,267.611c.758-.412,9.5-3.783,9.5-3.783s-7.577,5.512-8.335,5.924a1.257,1.257,0,1,1-1.166-2.141" transform="translate(-16.107 -190.734)"/>
    <path id="Path_163" data-name="Path 163" class="cls-3" d="M333.559,100.162c-.758.413-9.5,3.783-9.5,3.783s7.577-5.512,8.334-5.924a1.257,1.257,0,1,1,1.166,2.141" transform="translate(-234.278 -70.694)"/>
    <path id="Path_164" data-name="Path 164" class="cls-3" d="M68.4,314.994c.549-.665,7.4-7.055,7.4-7.055s-4.972,7.941-5.521,8.607a1.257,1.257,0,1,1-1.88-1.552" transform="translate(-49.14 -222.624)"/>
    <path id="Path_165" data-name="Path 165" class="cls-3" d="M295.075,44.676c-.549.665-7.4,7.055-7.4,7.055s4.972-7.941,5.521-8.607a1.257,1.257,0,1,1,1.88,1.551" transform="translate(-207.973 -30.702)"/>
    <path id="Path_166" data-name="Path 166" class="cls-3" d="M9.284,133.246c.826.25,9.363,4.111,9.363,4.111s-9.244-1.527-10.07-1.778a1.422,1.422,0,0,1-1.141-1.619,1.422,1.422,0,0,1,1.848-.714" transform="translate(-5.345 -96.268)"/>
    <path id="Path_167" data-name="Path 167" class="cls-3" d="M345.259,239.651c-.826-.25-9.363-4.111-9.363-4.111s9.244,1.527,10.07,1.778a1.257,1.257,0,1,1-.707,2.333" transform="translate(-242.835 -170.283)"/>
    <path id="Path_168" data-name="Path 168" class="cls-3" d="M1.453,204.006c.859-.076,10.22.319,10.22.319s-9.146,2.033-10.005,2.109A1.423,1.423,0,0,1,0,205.357a1.423,1.423,0,0,1,1.448-1.352" transform="translate(0 -147.479)"/>
    <path id="Path_169" data-name="Path 169" class="cls-3" d="M351.994,173.458c-.859.076-10.221-.319-10.221-.319s9.147-2.033,10.006-2.109a1.257,1.257,0,1,1,.215,2.428" transform="translate(-247.084 -123.64)"/>
    <path id="Path_170" data-name="Path 170" class="cls-3" d="M122.8,301.367c.3-.59,4.4-6.519,4.4-6.519s-2.43,6.786-2.733,7.376a.967.967,0,1,1-1.668-.856" transform="translate(-88.656 -213.16)"/>
    <path id="Path_171" data-name="Path 171" class="cls-3" d="M249.2,61.344c-.3.59-4.4,6.519-4.4,6.519s2.43-6.786,2.733-7.376a.967.967,0,1,1,1.668.856" transform="translate(-176.975 -43.206)"/>
    <path id="Path_172" data-name="Path 172" class="cls-3" d="M175.373,314.823c.061-.661,1.65-7.691,1.65-7.691s.278,7.2.217,7.863a.967.967,0,1,1-1.867-.172" transform="translate(-126.781 -222.04)"/>
    <path id="Path_173" data-name="Path 173" class="cls-3" d="M203.621,45.6c-.061.661-1.65,7.691-1.65,7.691s-.278-7.2-.217-7.863a.967.967,0,1,1,1.867.172" transform="translate(-145.851 -32.036)"/>
    <path id="Path_174" data-name="Path 174" class="cls-3" d="M227.857,310.1c-.2-.633-1.432-7.734-1.432-7.734s3.024,6.542,3.222,7.176a.967.967,0,1,1-1.79.559" transform="translate(-163.693 -218.594)"/>
    <path id="Path_175" data-name="Path 175" class="cls-3" d="M147.46,51.211c.2.633,1.432,7.734,1.432,7.734s-3.024-6.542-3.222-7.176a.967.967,0,1,1,1.79-.559" transform="translate(-105.262 -36.371)"/>
    <path id="Path_176" data-name="Path 176" class="cls-3" d="M270.62,287.14c-.426-.508-4.3-6.586-4.3-6.586s5.312,4.872,5.738,5.38a.967.967,0,1,1-1.436,1.205" transform="translate(-192.534 -202.826)"/>
    <path id="Path_177" data-name="Path 177" class="cls-3" d="M97.435,78.223c.426.508,4.3,6.586,4.3,6.586S96.425,79.936,96,79.428a.967.967,0,1,1,1.437-1.205" transform="translate(-69.159 -56.191)"/>
    <path id="Path_178" data-name="Path 178" class="cls-3" d="M51.694,229.065c.631-.2,7.719-1.513,7.719-1.513s-6.51,3.093-7.142,3.3a.967.967,0,1,1-.577-1.784" transform="translate(-36.728 -164.508)"/>
    <path id="Path_179" data-name="Path 179" class="cls-3" d="M309.746,145.984c-.631.2-7.719,1.513-7.719,1.513s6.51-3.093,7.142-3.3a.967.967,0,1,1,.577,1.784" transform="translate(-218.35 -104.196)"/>
    <path id="Path_180" data-name="Path 180" class="cls-3" d="M78.017,270.347c.509-.425,6.6-4.285,6.6-4.285s-4.885,5.3-5.395,5.724a.967.967,0,1,1-1.2-1.44" transform="translate(-56.041 -192.349)"/>
    <path id="Path_181" data-name="Path 181" class="cls-3" d="M287.371,97.689c-.51.425-6.6,4.285-6.6,4.285s4.885-5.3,5.395-5.724a.967.967,0,1,1,1.2,1.44" transform="translate(-202.986 -69.342)"/>
    <path id="Path_182" data-name="Path 182" class="cls-3" d="M61.734,122.085c.589.306,6.5,4.436,6.5,4.436s-6.772-2.466-7.361-2.772a.967.967,0,1,1,.865-1.664" transform="translate(-43.486 -88.14)"/>
    <path id="Path_183" data-name="Path 183" class="cls-3" d="M301.091,249.749c-.589-.306-6.5-4.436-6.5-4.436s6.773,2.466,7.361,2.772a.967.967,0,1,1-.865,1.664" transform="translate(-212.977 -177.349)"/>
    <path id="Path_184" data-name="Path 184" class="cls-3" d="M45.707,174.58c.66.064,7.682,1.691,7.682,1.691s-7.2.24-7.864.176a.967.967,0,1,1,.182-1.866" transform="translate(-32.111 -126.207)"/>
    <path id="Path_185" data-name="Path 185" class="cls-3" d="M314.786,204.347c-.66-.064-7.682-1.691-7.682-1.691s7.2-.24,7.864-.176a.967.967,0,1,1-.182,1.866" transform="translate(-222.02 -146.375)"/>
    <path id="Path_186" data-name="Path 186" class="cls-3" d="M215.607,68.3c-.1.541-1.785,6.251-1.785,6.251s.454-5.937.553-6.477.456-.928.8-.866.536.552.436,1.092" transform="translate(-154.582 -48.582)"/>
    <path id="Path_187" data-name="Path 187" class="cls-3" d="M188.066,65.421c0,.55-.673,6.466-.673,6.466s-.584-5.926-.58-6.475.288-.994.633-.991.623.45.619,1" transform="translate(-135.056 -46.573)"/>
    <path id="Path_188" data-name="Path 188" class="cls-3" d="M163.572,296.367c.1-.541,1.785-6.251,1.785-6.251s-.454,5.937-.553,6.477-.456.928-.8.866-.536-.552-.436-1.092" transform="translate(-118.236 -209.739)"/>
    <path id="Path_189" data-name="Path 189" class="cls-3" d="M192.571,298.942c0-.55.673-6.466.673-6.466s.584,5.925.58,6.475-.288.993-.633.991-.623-.45-.62-1" transform="translate(-139.219 -211.445)"/>
    <path id="Path_190" data-name="Path 190" class="cls-3" d="M68.329,163.542c.541.1,6.251,1.785,6.251,1.785s-5.937-.453-6.477-.553-.929-.456-.866-.8.551-.536,1.092-.437" transform="translate(-48.604 -118.213)"/>
    <path id="Path_191" data-name="Path 191" class="cls-3" d="M65.452,192.541c.55,0,6.466.673,6.466.673s-5.926.584-6.475.58-.994-.288-.991-.633.45-.623,1-.619" transform="translate(-46.595 -139.197)"/>
    <path id="Path_192" data-name="Path 192" class="cls-3" d="M296.4,215.577c-.541-.1-6.251-1.785-6.251-1.785s5.937.454,6.477.553.929.456.866.8-.552.536-1.092.436" transform="translate(-209.76 -154.561)"/>
    <path id="Path_193" data-name="Path 193" class="cls-3" d="M298.971,188.035c-.55,0-6.466-.673-6.466-.673s5.926-.584,6.475-.58.993.288.991.633-.45.623-1,.619" transform="translate(-211.466 -135.034)"/>
    <path id="Path_194" data-name="Path 194" class="cls-3" d="M85.141,249.05c.453-.312,5.683-3.158,5.683-3.158s-4.519,3.877-4.971,4.189-.979.334-1.175.049.011-.769.464-1.081" transform="translate(-61.164 -177.767)"/>
    <path id="Path_195" data-name="Path 195" class="cls-3" d="M103.756,269.275c.391-.386,5.048-4.1,5.048-4.1s-3.777,4.6-4.169,4.989-.906.5-1.149.253-.122-.759.269-1.145" transform="translate(-74.725 -191.711)"/>
    <path id="Path_196" data-name="Path 196" class="cls-3" d="M282.533,123.213c-.453.312-5.683,3.158-5.683,3.158s4.519-3.877,4.971-4.189.979-.334,1.175-.049-.011.769-.464,1.081" transform="translate(-200.148 -88.15)"/>
    <path id="Path_197" data-name="Path 197" class="cls-3" d="M265.948,100.552c-.391.386-5.048,4.1-5.048,4.1s3.777-4.6,4.169-4.989.906-.5,1.149-.253.122.759-.269,1.145" transform="translate(-188.617 -71.772)"/>
    <path id="Path_198" data-name="Path 198" class="cls-3" d="M123.243,85.111c.312.453,3.158,5.683,3.158,5.683s-3.877-4.519-4.189-4.972-.334-.979-.05-1.175.769.011,1.081.464" transform="translate(-88.173 -61.142)"/>
    <path id="Path_199" data-name="Path 199" class="cls-3" d="M100.583,103.726c.386.391,4.1,5.048,4.1,5.048s-4.6-3.777-4.989-4.169-.5-.906-.253-1.149.759-.122,1.145.269" transform="translate(-71.794 -74.703)"/>
    <path id="Path_200" data-name="Path 200" class="cls-3" d="M249.08,282.5c-.312-.453-3.158-5.683-3.158-5.683s3.877,4.519,4.189,4.971.334.979.05,1.175-.769-.011-1.081-.464" transform="translate(-177.789 -200.126)"/>
    <path id="Path_201" data-name="Path 201" class="cls-3" d="M269.305,265.917c-.386-.391-4.1-5.048-4.1-5.048s4.6,3.777,4.989,4.169.5.906.253,1.149-.759.122-1.145-.269" transform="translate(-191.732 -188.595)"/>
    <path id="Path_202" data-name="Path 202" class="cls-3" d="M169.147,67.208c.113.538.715,6.462.715,6.462s-1.828-5.667-1.941-6.2.07-1.032.409-1.1.7.308.817.846" transform="translate(-121.374 -47.97)"/>
    <path id="Path_203" data-name="Path 203" class="cls-3" d="M141.152,75.61c.2.51,1.826,6.239,1.826,6.239s-2.784-5.263-2.989-5.773-.11-1.028.211-1.157.747.181.952.691" transform="translate(-101.127 -54.141)"/>
    <path id="Path_204" data-name="Path 204" class="cls-3" d="M209.608,297.547c-.113-.538-.715-6.462-.715-6.462s1.828,5.667,1.941,6.2-.07,1.032-.409,1.1-.7-.308-.818-.846" transform="translate(-151.019 -210.439)"/>
    <path id="Path_205" data-name="Path 205" class="cls-3" d="M234.673,290.074c-.2-.51-1.826-6.239-1.826-6.239s2.784,5.263,2.989,5.773.11,1.028-.211,1.157-.747-.181-.952-.691" transform="translate(-168.336 -205.198)"/>
    <path id="Path_206" data-name="Path 206" class="cls-3" d="M67.238,209.578c.538-.113,6.462-.715,6.462-.715s-5.667,1.828-6.2,1.941-1.032-.07-1.1-.409.308-.7.846-.818" transform="translate(-47.992 -150.997)"/>
    <path id="Path_207" data-name="Path 207" class="cls-3" d="M75.641,234.643c.51-.2,6.239-1.826,6.239-1.826s-5.263,2.784-5.773,2.989-1.028.11-1.157-.211.181-.747.691-.952" transform="translate(-54.164 -168.315)"/>
    <path id="Path_208" data-name="Path 208" class="cls-3" d="M297.578,169.116c-.538.113-6.462.715-6.462.715s5.667-1.828,6.2-1.941,1.032.07,1.1.409-.308.7-.846.817" transform="translate(-210.462 -121.352)"/>
    <path id="Path_209" data-name="Path 209" class="cls-3" d="M290.1,141.122c-.51.2-6.24,1.826-6.24,1.826s5.263-2.784,5.773-2.989,1.028-.11,1.157.211-.181.747-.691.952" transform="translate(-205.22 -101.105)"/>
    <path id="Path_210" data-name="Path 210" class="cls-3" d="M118.541,279.094c.3-.46,4.064-5.074,4.064-5.074s-2.714,5.3-3.015,5.76-.779.68-1.069.491-.281-.716.02-1.176" transform="translate(-85.531 -198.102)"/>
    <path id="Path_211" data-name="Path 211" class="cls-3" d="M144.3,291.533c.216-.506,3.121-5.7,3.121-5.7s-1.753,5.69-1.969,6.2-.649.8-.967.669-.4-.656-.185-1.162" transform="translate(-104.233 -206.64)"/>
    <path id="Path_212" data-name="Path 212" class="cls-3" d="M254.157,88.264c-.3.46-4.064,5.074-4.064,5.074s2.714-5.3,3.015-5.76.779-.68,1.069-.491.281.716-.02,1.176" transform="translate(-180.804 -62.911)"/>
    <path id="Path_213" data-name="Path 213" class="cls-3" d="M231.149,74.313c-.216.506-3.121,5.7-3.121,5.7s1.753-5.69,1.969-6.2.649-.8.967-.669.4.656.185,1.162" transform="translate(-164.852 -52.861)"/>
    <path id="Path_214" data-name="Path 214" class="cls-3" d="M88.294,118.51c.46.3,5.074,4.064,5.074,4.064s-5.3-2.714-5.76-3.015-.68-.779-.491-1.069.716-.281,1.176.02" transform="translate(-62.933 -85.509)"/>
    <path id="Path_215" data-name="Path 215" class="cls-3" d="M74.343,144.267c.506.216,5.7,3.121,5.7,3.121s-5.69-1.753-6.2-1.969-.8-.649-.669-.967.656-.4,1.162-.185" transform="translate(-52.883 -104.211)"/>
    <path id="Path_216" data-name="Path 216" class="cls-3" d="M279.124,254.127c-.46-.3-5.074-4.064-5.074-4.064s5.3,2.714,5.76,3.015.68.779.491,1.069-.716.281-1.176-.02" transform="translate(-198.124 -180.783)"/>
    <path id="Path_217" data-name="Path 217" class="cls-3" d="M291.564,231.119c-.506-.216-5.7-3.121-5.7-3.121s5.69,1.753,6.2,1.969.8.649.669.967-.656.4-1.162.185" transform="translate(-206.663 -164.831)"/>
    <path id="Path_218" data-name="Path 218" class="cls-3" d="M218.432,106.39c-.569,1.072-7.739,12.06-7.739,12.06s5.086-12.094,5.655-13.166,1.5-1.693,2.072-1.387.58,1.422.011,2.493" transform="translate(-152.32 -75.056)"/>
    <path id="Path_219" data-name="Path 219" class="cls-3" d="M146.259,240.381c.569-1.072,5.655-13.166,5.655-13.166s-7.17,10.988-7.739,12.06-.564,2.188.011,2.493,1.5-.316,2.072-1.387" transform="translate(-103.925 -164.265)"/>
    <path id="Path_220" data-name="Path 220" class="cls-3" d="M235.4,132.177c-.956.748-11.973,7.872-11.973,7.872s9.564-8.982,10.52-9.729,2.055-.938,2.457-.425-.048,1.535-1,2.283" transform="translate(-161.523 -93.699)"/>
    <path id="Path_221" data-name="Path 221" class="cls-3" d="M115.717,226.277c.956-.748,10.52-9.729,10.52-9.729s-11.018,7.124-11.973,7.872-1.4,1.77-1,2.283,1.5.322,2.457-.425" transform="translate(-81.775 -156.553)"/>
    <path id="Path_222" data-name="Path 222" class="cls-3" d="M244.553,165.383c-1.17.323-14.08,2.662-14.08,2.662s12.283-4.613,13.453-4.935,2.258-.076,2.431.552-.634,1.4-1.8,1.721" transform="translate(-166.62 -117.817)"/>
    <path id="Path_223" data-name="Path 223" class="cls-3" d="M98.471,207.487c1.17-.323,13.453-4.935,13.453-4.935s-12.91,2.339-14.08,2.662-1.978,1.093-1.8,1.721,1.262.875,2.431.552" transform="translate(-69.415 -146.435)"/>
    <path id="Path_224" data-name="Path 224" class="cls-3" d="M245.707,199.267c-1.205-.138-14.054-2.8-14.054-2.8s13.117.315,14.322.453,2.122.775,2.049,1.422-1.112,1.059-2.317.921" transform="translate(-167.473 -142.038)"/>
    <path id="Path_225" data-name="Path 225" class="cls-3" d="M95.2,179.555c1.205.138,14.322.454,14.322.454s-12.848-2.659-14.053-2.8-2.243.275-2.317.922.843,1.284,2.049,1.422" transform="translate(-67.342 -128.096)"/>
    <path id="Path_226" data-name="Path 226" class="cls-3" d="M239.069,218.822c-1.067-.578-11.991-7.846-11.991-7.846s12.048,5.194,13.115,5.772,1.679,1.512,1.369,2.084-1.427.567-2.493-.011" transform="translate(-164.166 -152.525)"/>
    <path id="Path_227" data-name="Path 227" class="cls-3" d="M105.707,145.484c1.067.578,13.115,5.772,13.115,5.772s-10.924-7.267-11.991-7.846-2.183-.583-2.493-.011.3,1.506,1.369,2.084" transform="translate(-75.373 -103.363)"/>
    <path id="Path_228" data-name="Path 228" class="cls-3" d="M225.129,234.85c-.763-.944-8.059-11.848-8.059-11.848s9.131,9.422,9.894,10.366.971,2.04.464,2.45-1.535-.024-2.3-.967" transform="translate(-156.93 -161.219)"/>
    <path id="Path_229" data-name="Path 229" class="cls-3" d="M129.193,116.634c.763.944,9.894,10.366,9.894,10.366s-7.3-10.9-8.059-11.848-1.792-1.377-2.3-.967-.3,1.506.464,2.45" transform="translate(-92.864 -82.438)"/>
    <path id="Path_230" data-name="Path 230" class="cls-3" d="M205.735,244.4c-.334-1.167-2.793-14.054-2.793-14.054s4.727,12.239,5.061,13.406.1,2.257-.53,2.437-1.4-.621-1.738-1.788" transform="translate(-146.717 -166.525)"/>
    <path id="Path_231" data-name="Path 231" class="cls-3" d="M162.3,98.692c.334,1.167,5.061,13.406,5.061,13.406S164.9,99.21,164.57,98.044s-1.112-1.967-1.738-1.788-.863,1.27-.53,2.437" transform="translate(-117.227 -69.57)"/>
    <path id="Path_232" data-name="Path 232" class="cls-3" d="M177.364,245.686c.137-1.206,2.778-14.057,2.778-14.057s-.3,13.117-.434,14.322-.772,2.124-1.419,2.05-1.061-1.11-.925-2.316" transform="translate(-128.206 -167.456)"/>
    <path id="Path_233" data-name="Path 233" class="cls-3" d="M196.881,95.159c-.137,1.206-.434,14.323-.434,14.323s2.641-12.852,2.778-14.058-.278-2.242-.925-2.316-1.282.845-1.419,2.05" transform="translate(-142.021 -67.31)"/>
    <path id="Path_234" data-name="Path 234" class="cls-3" d="M222.7,31.211c-.129.7-2.321,8.126-2.321,8.126s.59-7.718.719-8.421.593-1.207,1.035-1.126.7.717.567,1.42" transform="translate(-159.325 -21.531)"/>
    <path id="Path_235" data-name="Path 235" class="cls-3" d="M186.9,27.471c0,.715-.875,8.406-.875,8.406s-.759-7.7-.754-8.418.374-1.291.824-1.288.81.585.805,1.3" transform="translate(-133.941 -18.92)"/>
    <path id="Path_236" data-name="Path 236" class="cls-3" d="M155.058,327.7c.129-.7,2.321-8.126,2.321-8.126s-.59,7.718-.719,8.421-.593,1.207-1.035,1.126-.7-.717-.567-1.42" transform="translate(-112.075 -231.035)"/>
    <path id="Path_237" data-name="Path 237" class="cls-3" d="M192.757,331.048c0-.715.875-8.406.875-8.406s.759,7.7.754,8.418-.374,1.292-.824,1.288-.81-.585-.805-1.3" transform="translate(-139.353 -233.253)"/>
    <path id="Path_238" data-name="Path 238" class="cls-3" d="M31.242,155.028c.7.129,8.126,2.321,8.126,2.321s-7.718-.59-8.42-.719-1.207-.593-1.126-1.035.717-.7,1.42-.567" transform="translate(-21.554 -112.053)"/>
    <path id="Path_239" data-name="Path 239" class="cls-3" d="M27.5,192.727c.715,0,8.406.875,8.406.875s-7.7.759-8.418.754-1.292-.374-1.288-.824.585-.81,1.3-.805" transform="translate(-18.942 -139.331)"/>
    <path id="Path_240" data-name="Path 240" class="cls-3" d="M327.73,222.673c-.7-.129-8.126-2.321-8.126-2.321s7.718.59,8.421.719,1.207.593,1.126,1.035-.717.7-1.42.567" transform="translate(-231.057 -159.303)"/>
    <path id="Path_241" data-name="Path 241" class="cls-3" d="M331.078,186.869c-.715,0-8.406-.875-8.406-.875s7.7-.759,8.418-.754,1.292.374,1.288.824-.585.81-1.3.805" transform="translate(-233.275 -133.919)"/>
    <path id="Path_242" data-name="Path 242" class="cls-3" d="M53.1,266.188c.588-.406,7.388-4.105,7.388-4.105s-5.874,5.04-6.463,5.446-1.272.434-1.528.064.015-1,.6-1.405" transform="translate(-37.881 -189.472)"/>
    <path id="Path_243" data-name="Path 243" class="cls-3" d="M77.3,292.482c.509-.5,6.563-5.326,6.563-5.326s-4.91,5.984-5.419,6.486-1.178.649-1.494.329-.159-.987.35-1.489" transform="translate(-55.51 -207.599)"/>
    <path id="Path_244" data-name="Path 244" class="cls-3" d="M309.706,102.6c-.588.406-7.388,4.105-7.388,4.105s5.875-5.04,6.463-5.446,1.272-.434,1.528-.064-.015,1-.6,1.405" transform="translate(-218.56 -72.971)"/>
    <path id="Path_245" data-name="Path 245" class="cls-3" d="M288.147,73.141c-.509.5-6.563,5.326-6.563,5.326s4.91-5.984,5.419-6.486,1.178-.649,1.494-.329.159.987-.35,1.488" transform="translate(-203.571 -51.679)"/>
    <path id="Path_246" data-name="Path 246" class="cls-3" d="M102.63,53.067c.406.588,4.105,7.388,4.105,7.388s-5.04-5.874-5.446-6.463-.435-1.272-.064-1.528,1,.015,1.405.6" transform="translate(-72.992 -37.859)"/>
    <path id="Path_247" data-name="Path 247" class="cls-3" d="M73.171,77.265c.5.509,5.325,6.563,5.325,6.563s-5.984-4.91-6.486-5.419-.649-1.178-.329-1.494.987-.159,1.489.35" transform="translate(-51.7 -55.488)"/>
    <path id="Path_248" data-name="Path 248" class="cls-3" d="M266.218,309.676c-.406-.588-4.105-7.388-4.105-7.388s5.04,5.874,5.446,6.463.434,1.273.064,1.528-1-.015-1.405-.6" transform="translate(-189.494 -218.539)"/>
    <path id="Path_249" data-name="Path 249" class="cls-3" d="M292.511,288.117c-.5-.509-5.325-6.563-5.325-6.563s5.984,4.91,6.486,5.419.649,1.178.329,1.494-.987.159-1.489-.35" transform="translate(-207.621 -203.549)"/>
    <path id="Path_250" data-name="Path 250" class="cls-3" d="M162.3,29.793c.147.7.929,8.4.929,8.4s-2.377-7.367-2.523-8.066.091-1.341.531-1.434.916.4,1.063,1.1" transform="translate(-116.154 -20.736)"/>
    <path id="Path_251" data-name="Path 251" class="cls-3" d="M125.912,40.716c.266.664,2.374,8.111,2.374,8.111s-3.62-6.842-3.885-7.505-.143-1.337.274-1.5.972.235,1.238.9" transform="translate(-89.834 -28.759)"/>
    <path id="Path_252" data-name="Path 252" class="cls-3" d="M214.9,329.234c-.147-.7-.929-8.4-.929-8.4s2.377,7.367,2.523,8.066-.091,1.341-.531,1.434-.916-.4-1.063-1.1" transform="translate(-154.693 -231.946)"/>
    <path id="Path_253" data-name="Path 253" class="cls-3" d="M247.488,319.52c-.266-.664-2.374-8.112-2.374-8.112s3.62,6.842,3.885,7.506.143,1.337-.275,1.5-.971-.235-1.237-.9" transform="translate(-177.205 -225.132)"/>
    <path id="Path_254" data-name="Path 254" class="cls-3" d="M29.823,214.874c.7-.147,8.4-.929,8.4-.929s-7.367,2.377-8.066,2.523-1.341-.091-1.434-.532.4-.916,1.1-1.062" transform="translate(-20.757 -154.671)"/>
    <path id="Path_255" data-name="Path 255" class="cls-3" d="M40.747,247.458c.664-.266,8.111-2.373,8.111-2.373s-6.842,3.62-7.505,3.885-1.337.143-1.5-.274.235-.972.9-1.238" transform="translate(-28.781 -177.184)"/>
    <path id="Path_256" data-name="Path 256" class="cls-3" d="M329.264,162.274c-.7.147-8.4.929-8.4.929s7.367-2.377,8.066-2.523,1.341.091,1.434.531-.4.916-1.1,1.063" transform="translate(-231.968 -116.132)"/>
    <path id="Path_257" data-name="Path 257" class="cls-3" d="M319.549,125.881c-.664.266-8.112,2.374-8.112,2.374s6.842-3.62,7.506-3.885,1.337-.143,1.5.274-.235.972-.9,1.238" transform="translate(-225.153 -89.811)"/>
    <path id="Path_258" data-name="Path 258" class="cls-3" d="M96.517,305.245c.391-.6,5.283-6.6,5.283-6.6s-3.529,6.889-3.919,7.488-1.013.884-1.39.638-.365-.931.026-1.529" transform="translate(-69.559 -215.907)"/>
    <path id="Path_259" data-name="Path 259" class="cls-3" d="M130,321.417c.281-.657,4.057-7.414,4.057-7.414s-2.279,7.4-2.56,8.054-.844,1.047-1.258.87-.521-.853-.24-1.51" transform="translate(-93.871 -227.008)"/>
    <path id="Path_260" data-name="Path 260" class="cls-3" d="M272.818,57.166c-.391.6-5.283,6.6-5.283,6.6s3.529-6.889,3.919-7.488,1.013-.884,1.39-.638.365.931-.026,1.529" transform="translate(-193.414 -40.159)"/>
    <path id="Path_261" data-name="Path 261" class="cls-3" d="M242.907,39.03c-.281.657-4.057,7.414-4.057,7.414s2.279-7.4,2.56-8.054.844-1.047,1.258-.87.521.853.24,1.51" transform="translate(-172.676 -27.094)"/>
    <path id="Path_262" data-name="Path 262" class="cls-3" d="M57.2,96.487c.6.391,6.6,5.283,6.6,5.283S56.9,98.241,56.305,97.85s-.884-1.013-.638-1.39.93-.365,1.529.026" transform="translate(-40.181 -69.537)"/>
    <path id="Path_263" data-name="Path 263" class="cls-3" d="M39.06,129.971c.657.281,7.414,4.057,7.414,4.057s-7.4-2.279-8.054-2.56-1.047-.844-.87-1.258.853-.521,1.51-.24" transform="translate(-27.116 -93.849)"/>
    <path id="Path_264" data-name="Path 264" class="cls-3" d="M305.277,272.787c-.6-.391-6.6-5.283-6.6-5.283s6.889,3.529,7.488,3.919.884,1.013.638,1.39-.93.365-1.529-.026" transform="translate(-215.93 -193.391)"/>
    <path id="Path_265" data-name="Path 265" class="cls-3" d="M321.448,242.877c-.657-.281-7.414-4.057-7.414-4.057s7.4,2.279,8.054,2.56,1.046.844.87,1.258-.853.521-1.51.24" transform="translate(-227.03 -172.654)"/>
  </g>
</svg>
