<svg id="Group_34" data-name="Group 34" xmlns="http://www.w3.org/2000/svg" xmlns:xlink="http://www.w3.org/1999/xlink" width="67.516" height="67.5" viewBox="0 0 67.516 67.5">
  <defs>
    <style>
      .cls-1 {
        fill: none;
      }

      .cls-2 {
        clip-path: url(#clip-path);
      }

      .cls-3 {
        fill: #fcb606;
      }
    </style>
    <clipPath id="clip-path">
      <rect id="Rectangle_44" data-name="Rectangle 44" class="cls-1" width="67.516" height="67.5"/>
    </clipPath>
  </defs>
  <g id="Group_33" data-name="Group 33" class="cls-2">
    <path id="Path_266" data-name="Path 266" class="cls-3" d="M176.275,54.233c-.823.912-10.578,9.938-10.578,9.938s7.981-10.626,8.8-11.538,1.888-1.294,2.378-.852.219,1.54-.6,2.452" transform="translate(-124.426 -38.745)"/>
    <path id="Path_267" data-name="Path 267" class="cls-3" d="M62.115,180.459c.823-.912,8.8-11.538,8.8-11.538s-9.755,9.025-10.578,9.938-1.094,2.01-.6,2.452,1.554.061,2.378-.852" transform="translate(-44.675 -126.847)"/>
    <path id="Path_268" data-name="Path 268" class="cls-3" d="M190.384,90.483c-1.123.5-13.7,4.778-13.7,4.778S188.291,88.8,189.414,88.3s2.251-.414,2.518.189-.426,1.5-1.549,1.995" transform="translate(-132.672 -66.062)"/>
    <path id="Path_269" data-name="Path 269" class="cls-3" d="M35.49,160.732c1.123-.5,12.735-6.962,12.735-6.962s-12.582,4.28-13.7,4.778-1.817,1.392-1.549,1.995,1.4.687,2.519.189" transform="translate(-24.716 -115.469)"/>
    <path id="Path_270" data-name="Path 270" class="cls-3" d="M195.029,130.705c-1.229.028-14.488-.86-14.488-.86s13.2-1.5,14.433-1.529,2.237.483,2.252,1.143-.968,1.217-2.2,1.246" transform="translate(-135.572 -96.355)"/>
    <path id="Path_271" data-name="Path 271" class="cls-3" d="M25.787,135.477c1.229-.028,14.433-1.529,14.433-1.529s-13.26-.888-14.488-.86-2.212.586-2.2,1.246,1.024,1.171,2.252,1.143" transform="translate(-17.672 -99.939)"/>
    <path id="Path_272" data-name="Path 272" class="cls-3" d="M190.781,157.581c-1.15-.433-13.116-6.215-13.116-6.215s12.807,3.546,13.958,3.98,1.894,1.285,1.662,1.9-1.353.767-2.5.334" transform="translate(-133.413 -113.664)"/>
    <path id="Path_273" data-name="Path 273" class="cls-3" d="M32.225,96.17c1.15.433,13.958,3.98,13.958,3.98s-11.965-5.782-13.116-6.215-2.271-.284-2.5.334.511,1.469,1.662,1.9" transform="translate(-22.919 -70.351)"/>
    <path id="Path_274" data-name="Path 274" class="cls-3" d="M178.527,176.626c-.9-.831-9.843-10.666-9.843-10.666s10.554,8.075,11.459,8.907,1.277,1.9.831,2.385-1.542.205-2.447-.626" transform="translate(-126.669 -124.623)"/>
    <path id="Path_275" data-name="Path 275" class="cls-3" d="M53.3,61.371c.9.831,11.459,8.907,11.459,8.907s-8.938-9.835-9.843-10.666-2-1.112-2.447-.626-.074,1.553.83,2.385" transform="translate(-39.26 -44.114)"/>
    <path id="Path_276" data-name="Path 276" class="cls-3" d="M159.44,189.982c-.516-1.115-4.993-13.628-4.993-13.628s6.645,11.509,7.161,12.624.45,2.244-.149,2.521-1.5-.4-2.019-1.518" transform="translate(-115.978 -132.428)"/>
    <path id="Path_277" data-name="Path 277" class="cls-3" d="M86.819,36.174C87.336,37.29,93.981,48.8,93.981,48.8S89.5,36.286,88.987,35.171s-1.42-1.795-2.019-1.517-.665,1.406-.149,2.521" transform="translate(-64.934 -25.224)"/>
    <path id="Path_278" data-name="Path 278" class="cls-3" d="M134.082,194.992c-.04-1.228.724-14.5.724-14.5s1.624,13.19,1.664,14.418-.462,2.242-1.122,2.263-1.226-.957-1.266-2.185" transform="translate(-100.684 -135.539)"/>
    <path id="Path_279" data-name="Path 279" class="cls-3" d="M127.385,25.794c.04,1.228,1.664,14.418,1.664,14.418s.764-13.267.724-14.5-.607-2.207-1.266-2.185-1.161,1.034-1.122,2.263" transform="translate(-95.655 -17.67)"/>
    <path id="Path_280" data-name="Path 280" class="cls-3" d="M94.1,190.777c.432-1.151,6.2-13.124,6.2-13.124s-3.529,12.812-3.961,13.963-1.282,1.9-1.9,1.664-.769-1.352-.337-2.5" transform="translate(-70.476 -133.404)"/>
    <path id="Path_281" data-name="Path 281" class="cls-3" d="M155.3,32.144c-.432,1.151-3.961,13.963-3.961,13.963s5.766-11.973,6.2-13.124.281-2.271-.337-2.5-1.468.513-1.9,1.664" transform="translate(-113.646 -22.856)"/>
    <path id="Path_282" data-name="Path 282" class="cls-3" d="M138.019,58.04c-.115,1.354-1.965,15.881-1.965,15.881s.625-14.632.74-15.986.482-2.428.821-2.4.52,1.149.4,2.5" transform="translate(-102.166 -41.703)"/>
    <path id="Path_283" data-name="Path 283" class="cls-3" d="M127.016,157.532c.115-1.354,1.965-15.881,1.965-15.881s-.625,14.632-.74,15.986-.482,2.428-.821,2.4-.52-1.149-.4-2.5" transform="translate(-95.353 -106.369)"/>
    <path id="Path_284" data-name="Path 284" class="cls-3" d="M58.072,126.984c1.354.115,15.881,1.965,15.881,1.965s-14.632-.625-15.986-.74-2.428-.482-2.4-.821,1.149-.52,2.5-.4" transform="translate(-41.727 -95.329)"/>
    <path id="Path_285" data-name="Path 285" class="cls-3" d="M157.565,137.987c-1.354-.115-15.881-1.965-15.881-1.965s14.631.625,15.986.74,2.428.482,2.4.821-1.149.52-2.5.4" transform="translate(-106.394 -102.142)"/>
    <path id="Path_286" data-name="Path 286" class="cls-3" d="M75.549,149.32c1.039-.876,12.62-9.84,12.62-9.84s-10.788,9.9-11.826,10.781-2.058,1.376-2.277,1.116.445-1.18,1.484-2.056" transform="translate(-55.586 -104.739)"/>
    <path id="Path_287" data-name="Path 287" class="cls-3" d="M152.871,85.607c-1.038.876-12.62,9.84-12.62,9.84s10.788-9.9,11.826-10.781,2.058-1.376,2.277-1.116-.445,1.18-1.484,2.056" transform="translate(-105.318 -62.688)"/>
    <path id="Path_288" data-name="Path 288" class="cls-3" d="M149.353,152.838c-.876-1.038-9.84-12.62-9.84-12.62s9.9,10.788,10.781,11.826,1.376,2.058,1.116,2.277-1.18-.445-2.056-1.484" transform="translate(-104.763 -105.293)"/>
    <path id="Path_289" data-name="Path 289" class="cls-3" d="M85.639,75.516c.876,1.039,9.84,12.62,9.84,12.62S85.574,77.348,84.7,76.309s-1.376-2.058-1.116-2.277,1.18.445,2.056,1.484" transform="translate(-62.712 -55.561)"/>
    <path id="Path_290" data-name="Path 290" class="cls-3" d="M111.923,61.162c.412,1.295,4.262,15.425,4.262,15.425s-5.022-13.757-5.434-15.052-.483-2.428-.16-2.531.92.863,1.332,2.158" transform="translate(-82.893 -44.302)"/>
    <path id="Path_291" data-name="Path 291" class="cls-3" d="M141.666,156.807c-.412-1.295-4.262-15.425-4.262-15.425s5.022,13.757,5.434,15.052.483,2.428.16,2.531-.92-.863-1.332-2.158" transform="translate(-103.18 -106.167)"/>
    <path id="Path_292" data-name="Path 292" class="cls-3" d="M61.2,141.633c1.295-.412,15.425-4.262,15.425-4.262s-13.757,5.022-15.052,5.434-2.428.483-2.531.16.863-.92,2.158-1.332" transform="translate(-44.327 -103.155)"/>
    <path id="Path_293" data-name="Path 293" class="cls-3" d="M156.84,111.89c-1.295.412-15.425,4.262-15.425,4.262s13.757-5.022,15.052-5.434,2.428-.483,2.531-.16-.863.92-2.158,1.332" transform="translate(-106.192 -82.868)"/>
    <path id="Path_294" data-name="Path 294" class="cls-3" d="M98.868,154.9c.624-1.207,7.893-13.92,7.893-13.92s-6.176,13.279-6.8,14.486-1.375,2.059-1.677,1.9-.04-1.261.584-2.468" transform="translate(-73.709 -105.867)"/>
    <path id="Path_295" data-name="Path 295" class="cls-3" d="M146.261,66.634c-.624,1.207-7.893,13.92-7.893,13.92s6.176-13.279,6.8-14.486,1.375-2.059,1.677-1.9.04,1.261-.584,2.468" transform="translate(-103.904 -48.17)"/>
    <path id="Path_296" data-name="Path 296" class="cls-3" d="M154.936,146.229c-1.207-.624-13.92-7.893-13.92-7.893s13.279,6.176,14.486,6.8,2.059,1.375,1.9,1.677-1.261.04-2.468-.584" transform="translate(-105.892 -103.88)"/>
    <path id="Path_297" data-name="Path 297" class="cls-3" d="M66.666,98.835c1.207.624,13.92,7.893,13.92,7.893s-13.279-6.176-14.486-6.8-2.059-1.375-1.9-1.677,1.261-.04,2.468.584" transform="translate(-48.194 -73.685)"/>
    <path id="Path_298" data-name="Path 298" class="cls-3" d="M151.064,3.293c-.291,1.483-4.867,17.164-4.867,17.164s1.694-16.248,1.985-17.73,1.172-2.558,1.968-2.4,1.2,1.485.914,2.967" transform="translate(-109.783 -0.233)"/>
    <path id="Path_299" data-name="Path 299" class="cls-3" d="M107.927,207.533c.291-1.483,1.985-17.73,1.985-17.73s-4.576,15.682-4.867,17.164.118,2.811.914,2.967,1.677-.919,1.968-2.4" transform="translate(-78.81 -142.527)"/>
    <path id="Path_300" data-name="Path 300" class="cls-3" d="M178.779,25.45c-.869,1.236-11.425,13.7-11.425,13.7S175.508,25,176.377,23.762s2.111-1.86,2.774-1.394.5,1.846-.372,3.082" transform="translate(-125.67 -16.68)"/>
    <path id="Path_301" data-name="Path 301" class="cls-3" d="M57.9,196.168c.869-1.236,9.023-15.392,9.023-15.392s-10.557,12.467-11.425,13.7-1.035,2.616-.372,3.082,1.905-.158,2.774-1.394" transform="translate(-41.088 -135.749)"/>
    <path id="Path_302" data-name="Path 302" class="cls-3" d="M198.135,63.276c-1.277.807-15.816,8.255-15.816,8.255s12.97-9.931,14.248-10.738,2.664-.905,3.1-.22-.251,1.9-1.528,2.7" transform="translate(-136.907 -45.143)"/>
    <path id="Path_303" data-name="Path 303" class="cls-3" d="M21.816,175.8c1.277-.807,14.248-10.738,14.248-10.738s-14.539,7.448-15.816,8.255-1.961,2.017-1.528,2.7,1.82.587,3.1-.22" transform="translate(-13.959 -123.946)"/>
    <path id="Path_304" data-name="Path 304" class="cls-3" d="M207.734,109.637c-1.486.271-17.756,1.742-17.756,1.742s15.743-4.36,17.229-4.631,2.809.156,2.954.954-.942,1.664-2.428,1.935" transform="translate(-142.659 -80.098)"/>
    <path id="Path_305" data-name="Path 305" class="cls-3" d="M2.967,150.047c1.486-.271,17.23-4.631,17.23-4.631s-16.269,1.471-17.756,1.742-2.573,1.137-2.428,1.935,1.468,1.225,2.954.954" transform="translate(0 -109.196)"/>
    <path id="Path_306" data-name="Path 306" class="cls-3" d="M206.859,151.666c-1.48-.3-17.12-5.019-17.12-5.019s16.232,1.839,17.712,2.143,2.547,1.195,2.384,1.989-1.5,1.192-2.975.887" transform="translate(-142.479 -110.121)"/>
    <path id="Path_307" data-name="Path 307" class="cls-3" d="M2.98,106.769c1.48.3,17.712,2.143,17.712,2.143S5.051,104.2,3.571,103.892.76,103.985.6,104.78s.9,1.685,2.384,1.989" transform="translate(-0.435 -77.938)"/>
    <path id="Path_308" data-name="Path 308" class="cls-3" d="M195.185,177.814c-1.25-.849-13.881-11.208-13.881-11.208s14.282,7.93,15.531,8.779,1.893,2.081,1.437,2.752-1.838.526-3.088-.323" transform="translate(-136.145 -125.108)"/>
    <path id="Path_309" data-name="Path 309" class="cls-3" d="M22.631,59.578c1.25.849,15.531,8.779,15.531,8.779S25.531,58,24.281,57.149s-2.632-.994-3.088-.323.188,1.9,1.437,2.752" transform="translate(-15.805 -42.355)"/>
    <path id="Path_310" data-name="Path 310" class="cls-3" d="M173.929,197.746c-.819-1.27-8.4-15.738-8.4-15.738s10.052,12.877,10.87,14.147.93,2.655.249,3.095-1.9-.234-2.716-1.5" transform="translate(-124.297 -136.674)"/>
    <path id="Path_311" data-name="Path 311" class="cls-3" d="M59.8,22.459c.819,1.27,10.87,14.147,10.87,14.147s-7.584-14.469-8.4-15.738-2.035-1.943-2.716-1.5-.57,1.825.249,3.095" transform="translate(-44.384 -14.44)"/>
    <path id="Path_312" data-name="Path 312" class="cls-3" d="M147.286,207.686c-.273-1.486-1.765-17.753-1.765-17.753s4.381,15.737,4.654,17.223-.153,2.809-.95,2.956-1.665-.94-1.938-2.426" transform="translate(-109.275 -142.624)"/>
    <path id="Path_313" data-name="Path 313" class="cls-3" d="M106.611,2.969c.273,1.486,4.654,17.223,4.654,17.223S109.772,3.925,109.5,2.439s-1.14-2.572-1.938-2.426-1.223,1.47-.95,2.956" transform="translate(-79.995 0)"/>
  </g>
</svg>
