<svg xmlns="http://www.w3.org/2000/svg" width="49" height="61.157" viewBox="0 0 49 61.157">
  <g id="Group_27" data-name="Group 27" transform="translate(11.102 0)">
    <path id="Path_121" data-name="Path 121" d="M557.164,103.263a13.15,13.15,0,0,0-.833-4.353,9.165,9.165,0,0,0-5.244-5.243,13.139,13.139,0,0,0-4.352-.834c-1.912-.087-2.523-.108-7.392-.108s-5.48.021-7.392.108a13.147,13.147,0,0,0-4.352.834,9.167,9.167,0,0,0-5.243,5.243,13.147,13.147,0,0,0-.834,4.353c-.087,1.912-.107,2.523-.107,7.391s.019,5.48.107,7.392a13.138,13.138,0,0,0,.834,4.352,9.164,9.164,0,0,0,5.243,5.244,13.182,13.182,0,0,0,4.352.834c1.912.086,2.523.107,7.392.107s5.48-.021,7.392-.107a13.174,13.174,0,0,0,4.352-.834,9.162,9.162,0,0,0,5.244-5.244,13.141,13.141,0,0,0,.833-4.352c.087-1.912.108-2.523.108-7.392s-.021-5.479-.108-7.391M553.938,117.9a9.893,9.893,0,0,1-.618,3.329,5.928,5.928,0,0,1-3.4,3.4,9.893,9.893,0,0,1-3.329.618c-1.89.086-2.458.1-7.245.1s-5.354-.018-7.244-.1a9.894,9.894,0,0,1-3.329-.618,5.928,5.928,0,0,1-3.4-3.4,9.9,9.9,0,0,1-.618-3.329c-.086-1.89-.105-2.458-.105-7.245s.019-5.354.105-7.244a9.9,9.9,0,0,1,.618-3.329,5.928,5.928,0,0,1,3.4-3.4,9.894,9.894,0,0,1,3.329-.618c1.89-.086,2.458-.105,7.244-.105s5.355.019,7.245.105a9.894,9.894,0,0,1,3.329.618,5.928,5.928,0,0,1,3.4,3.4,9.893,9.893,0,0,1,.618,3.329c.086,1.89.1,2.458.1,7.244s-.018,5.355-.1,7.245" transform="translate(-521.415 -92.725)" fill="#fff"/>
    <path id="Path_122" data-name="Path 122" d="M536.784,99.011a9.207,9.207,0,1,0,9.206,9.206,9.207,9.207,0,0,0-9.206-9.206m0,15.183a5.976,5.976,0,1,1,5.977-5.977,5.977,5.977,0,0,1-5.977,5.977" transform="translate(-519.026 -90.288)" fill="#fff"/>
    <path id="Path_123" data-name="Path 123" d="M541.832,97.2a2.152,2.152,0,1,0,2.151,2.151,2.151,2.151,0,0,0-2.151-2.151" transform="translate(-514.333 -90.991)" fill="#fff"/>
  </g>
  <text id="Instagram" transform="translate(0 58.157)" fill="#fff" font-size="9" font-family="Poppins-Regular, Poppins"><tspan x="0" y="0" letter-spacing="0.029em">I</tspan><tspan y="0" letter-spacing="0.02em">n</tspan><tspan y="0" letter-spacing="0.019em">st</tspan><tspan y="0" letter-spacing="0.02em">a</tspan><tspan y="0" letter-spacing="0.014em">gr</tspan><tspan y="0" letter-spacing="0.019em">a</tspan><tspan y="0">m</tspan></text>
</svg>
