<svg xmlns="http://www.w3.org/2000/svg" width="39.542" height="62.944" viewBox="0 0 39.542 62.944">
  <g id="Group_25" data-name="Group 25" transform="translate(0)">
    <path id="Path_119" data-name="Path 119" d="M393.968,109.282a4.336,4.336,0,0,0-7.334-2.974,21.1,21.1,0,0,0-11.431-3.654l1.926-9.26,6.353,1.335a2.975,2.975,0,1,0,.391-1.815L376.6,91.459a.922.922,0,0,0-1.1.7v.014l-2.191,10.3a21.26,21.26,0,0,0-11.578,3.652,4.333,4.333,0,0,0-5.934,6.317,4.23,4.23,0,0,0,1.166.781,9.783,9.783,0,0,0,0,1.307c0,6.649,7.749,12.058,17.3,12.058s17.3-5.4,17.3-12.058a9.773,9.773,0,0,0,0-1.307,4.331,4.331,0,0,0,2.4-3.947m-29.686,2.974a2.974,2.974,0,1,1,2.974,2.974,2.978,2.978,0,0,1-2.974-2.974m17.245,8.161a12.908,12.908,0,0,1-14.671,0,.8.8,0,0,1,1.13-1.13,11.347,11.347,0,0,0,12.383.06.83.83,0,0,1,1.159,1.188ZM381,115.332a2.1,2.1,0,1,1,.125.111h-.147Z" transform="translate(-354.426 -91.437)" fill="#fff"/>
    <text id="Reddit" transform="translate(2.775 59.944)" fill="#fff" font-size="9" font-family="Poppins-Regular, Poppins"><tspan x="0" y="0" letter-spacing="0.023em">R</tspan><tspan y="0" letter-spacing="0.02em">eddi</tspan><tspan y="0">t</tspan></text>
  </g>
</svg>
