<svg id="Group_23" data-name="Group 23" xmlns="http://www.w3.org/2000/svg" width="44" height="58.482" viewBox="0 0 44 58.482">
  <path id="Path_118" data-name="Path 118" d="M223.221,94.995l-31.669,12.423s-1.5.512-1.379,1.46,1.341,1.379,1.341,1.379l7.967,2.682,19.127-12.148s1.1-.669,1.064,0c0,0,.2.119-.394.672s-15.026,13.526-15.026,13.526l-1.039,8.87a.9.9,0,0,0,.842-.114l5.148-4.693,8.024,6.152a2.089,2.089,0,0,0,2.959-1.026l5.64-28.434c0-1.893-2.6-.749-2.6-.749" transform="translate(-181.84 -94.652)" fill="#fff"/>
  <text id="Telegram" transform="translate(0 55.482)" fill="#fff" font-size="9" font-family="Poppins-Regular, Poppins"><tspan x="0" y="0" letter-spacing="-0.051em">T</tspan><tspan y="0" letter-spacing="0.02em">ele</tspan><tspan y="0" letter-spacing="0.014em">gr</tspan><tspan y="0" letter-spacing="0.019em">a</tspan><tspan y="0">m</tspan></text>
</svg>
