<svg id="Group_24" data-name="Group 24" xmlns="http://www.w3.org/2000/svg" width="41.379" height="59.891" viewBox="0 0 41.379 59.891">
  <path id="Path_117" data-name="Path 117" d="M311.17,94.257a17.017,17.017,0,0,1-5.391,2.061,8.5,8.5,0,0,0-14.466,7.742,24.1,24.1,0,0,1-17.5-8.87,8.5,8.5,0,0,0,2.627,11.335,8.463,8.463,0,0,1-3.845-1.062v.107a8.493,8.493,0,0,0,6.81,8.324,8.492,8.492,0,0,1-3.834.146,8.5,8.5,0,0,0,7.931,5.9,17.035,17.035,0,0,1-10.544,3.634,17.4,17.4,0,0,1-2.025-.118,24.036,24.036,0,0,0,13.013,3.813c15.616,0,24.155-12.936,24.155-24.155q0-.552-.025-1.1a17.218,17.218,0,0,0,4.237-4.395,16.955,16.955,0,0,1-4.876,1.338,8.52,8.52,0,0,0,3.733-4.7" transform="translate(-270.935 -93.637)" fill="#fff"/>
  <text id="Twitter" transform="translate(1.388 56.891)" fill="#fff" font-size="9" font-family="Poppins-Regular, Poppins"><tspan x="0" y="0" letter-spacing="-0.02em">T</tspan><tspan y="0" letter-spacing="0.02em">wit</tspan><tspan y="0" letter-spacing="0.013em">t</tspan><tspan y="0" letter-spacing="0.02em">e</tspan><tspan y="0">r</tspan></text>
</svg>
